G04 #@! TF.GenerationSoftware,KiCad,Pcbnew,(5.0.0)*
G04 #@! TF.CreationDate,2018-12-18T18:12:34+01:00*
G04 #@! TF.ProjectId,Bikelight,42696B656C696768742E6B696361645F,rev?*
G04 #@! TF.SameCoordinates,Original*
G04 #@! TF.FileFunction,Legend,Top*
G04 #@! TF.FilePolarity,Positive*
%FSLAX46Y46*%
G04 Gerber Fmt 4.6, Leading zero omitted, Abs format (unit mm)*
G04 Created by KiCad (PCBNEW (5.0.0)) date 12/18/18 18:12:34*
%MOMM*%
%LPD*%
G01*
G04 APERTURE LIST*
%ADD10C,0.200000*%
%ADD11C,0.300000*%
%ADD12C,0.150000*%
%ADD13C,0.120000*%
G04 APERTURE END LIST*
D10*
X137882380Y-108402380D02*
X137549047Y-107926190D01*
X137310952Y-108402380D02*
X137310952Y-107402380D01*
X137691904Y-107402380D01*
X137787142Y-107450000D01*
X137834761Y-107497619D01*
X137882380Y-107592857D01*
X137882380Y-107735714D01*
X137834761Y-107830952D01*
X137787142Y-107878571D01*
X137691904Y-107926190D01*
X137310952Y-107926190D01*
X138263333Y-108354761D02*
X138406190Y-108402380D01*
X138644285Y-108402380D01*
X138739523Y-108354761D01*
X138787142Y-108307142D01*
X138834761Y-108211904D01*
X138834761Y-108116666D01*
X138787142Y-108021428D01*
X138739523Y-107973809D01*
X138644285Y-107926190D01*
X138453809Y-107878571D01*
X138358571Y-107830952D01*
X138310952Y-107783333D01*
X138263333Y-107688095D01*
X138263333Y-107592857D01*
X138310952Y-107497619D01*
X138358571Y-107450000D01*
X138453809Y-107402380D01*
X138691904Y-107402380D01*
X138834761Y-107450000D01*
X139120476Y-107402380D02*
X139691904Y-107402380D01*
X139406190Y-108402380D02*
X139406190Y-107402380D01*
X140033571Y-105862380D02*
X140033571Y-104862380D01*
X140366904Y-105576666D01*
X140700238Y-104862380D01*
X140700238Y-105862380D01*
X141366904Y-104862380D02*
X141557380Y-104862380D01*
X141652619Y-104910000D01*
X141747857Y-105005238D01*
X141795476Y-105195714D01*
X141795476Y-105529047D01*
X141747857Y-105719523D01*
X141652619Y-105814761D01*
X141557380Y-105862380D01*
X141366904Y-105862380D01*
X141271666Y-105814761D01*
X141176428Y-105719523D01*
X141128809Y-105529047D01*
X141128809Y-105195714D01*
X141176428Y-105005238D01*
X141271666Y-104910000D01*
X141366904Y-104862380D01*
X142176428Y-105814761D02*
X142319285Y-105862380D01*
X142557380Y-105862380D01*
X142652619Y-105814761D01*
X142700238Y-105767142D01*
X142747857Y-105671904D01*
X142747857Y-105576666D01*
X142700238Y-105481428D01*
X142652619Y-105433809D01*
X142557380Y-105386190D01*
X142366904Y-105338571D01*
X142271666Y-105290952D01*
X142224047Y-105243333D01*
X142176428Y-105148095D01*
X142176428Y-105052857D01*
X142224047Y-104957619D01*
X142271666Y-104910000D01*
X142366904Y-104862380D01*
X142605000Y-104862380D01*
X142747857Y-104910000D01*
X143176428Y-105862380D02*
X143176428Y-104862380D01*
X140414523Y-102322380D02*
X141033571Y-102322380D01*
X140700238Y-102703333D01*
X140843095Y-102703333D01*
X140938333Y-102750952D01*
X140985952Y-102798571D01*
X141033571Y-102893809D01*
X141033571Y-103131904D01*
X140985952Y-103227142D01*
X140938333Y-103274761D01*
X140843095Y-103322380D01*
X140557380Y-103322380D01*
X140462142Y-103274761D01*
X140414523Y-103227142D01*
X141366904Y-102655714D02*
X141605000Y-103322380D01*
X141843095Y-102655714D01*
X142128809Y-102322380D02*
X142747857Y-102322380D01*
X142414523Y-102703333D01*
X142557380Y-102703333D01*
X142652619Y-102750952D01*
X142700238Y-102798571D01*
X142747857Y-102893809D01*
X142747857Y-103131904D01*
X142700238Y-103227142D01*
X142652619Y-103274761D01*
X142557380Y-103322380D01*
X142271666Y-103322380D01*
X142176428Y-103274761D01*
X142128809Y-103227142D01*
X140843095Y-107450000D02*
X140747857Y-107402380D01*
X140605000Y-107402380D01*
X140462142Y-107450000D01*
X140366904Y-107545238D01*
X140319285Y-107640476D01*
X140271666Y-107830952D01*
X140271666Y-107973809D01*
X140319285Y-108164285D01*
X140366904Y-108259523D01*
X140462142Y-108354761D01*
X140605000Y-108402380D01*
X140700238Y-108402380D01*
X140843095Y-108354761D01*
X140890714Y-108307142D01*
X140890714Y-107973809D01*
X140700238Y-107973809D01*
X141319285Y-108402380D02*
X141319285Y-107402380D01*
X141890714Y-108402380D01*
X141890714Y-107402380D01*
X142366904Y-108402380D02*
X142366904Y-107402380D01*
X142605000Y-107402380D01*
X142747857Y-107450000D01*
X142843095Y-107545238D01*
X142890714Y-107640476D01*
X142938333Y-107830952D01*
X142938333Y-107973809D01*
X142890714Y-108164285D01*
X142843095Y-108259523D01*
X142747857Y-108354761D01*
X142605000Y-108402380D01*
X142366904Y-108402380D01*
X137144285Y-105814761D02*
X137287142Y-105862380D01*
X137525238Y-105862380D01*
X137620476Y-105814761D01*
X137668095Y-105767142D01*
X137715714Y-105671904D01*
X137715714Y-105576666D01*
X137668095Y-105481428D01*
X137620476Y-105433809D01*
X137525238Y-105386190D01*
X137334761Y-105338571D01*
X137239523Y-105290952D01*
X137191904Y-105243333D01*
X137144285Y-105148095D01*
X137144285Y-105052857D01*
X137191904Y-104957619D01*
X137239523Y-104910000D01*
X137334761Y-104862380D01*
X137572857Y-104862380D01*
X137715714Y-104910000D01*
X138715714Y-105767142D02*
X138668095Y-105814761D01*
X138525238Y-105862380D01*
X138430000Y-105862380D01*
X138287142Y-105814761D01*
X138191904Y-105719523D01*
X138144285Y-105624285D01*
X138096666Y-105433809D01*
X138096666Y-105290952D01*
X138144285Y-105100476D01*
X138191904Y-105005238D01*
X138287142Y-104910000D01*
X138430000Y-104862380D01*
X138525238Y-104862380D01*
X138668095Y-104910000D01*
X138715714Y-104957619D01*
X139144285Y-105862380D02*
X139144285Y-104862380D01*
X139715714Y-105862380D02*
X139287142Y-105290952D01*
X139715714Y-104862380D02*
X139144285Y-105433809D01*
X136858571Y-103322380D02*
X136858571Y-102322380D01*
X137191904Y-103036666D01*
X137525238Y-102322380D01*
X137525238Y-103322380D01*
X138001428Y-103322380D02*
X138001428Y-102322380D01*
X138430000Y-103274761D02*
X138572857Y-103322380D01*
X138810952Y-103322380D01*
X138906190Y-103274761D01*
X138953809Y-103227142D01*
X139001428Y-103131904D01*
X139001428Y-103036666D01*
X138953809Y-102941428D01*
X138906190Y-102893809D01*
X138810952Y-102846190D01*
X138620476Y-102798571D01*
X138525238Y-102750952D01*
X138477619Y-102703333D01*
X138430000Y-102608095D01*
X138430000Y-102512857D01*
X138477619Y-102417619D01*
X138525238Y-102370000D01*
X138620476Y-102322380D01*
X138858571Y-102322380D01*
X139001428Y-102370000D01*
X139620476Y-102322380D02*
X139810952Y-102322380D01*
X139906190Y-102370000D01*
X140001428Y-102465238D01*
X140049047Y-102655714D01*
X140049047Y-102989047D01*
X140001428Y-103179523D01*
X139906190Y-103274761D01*
X139810952Y-103322380D01*
X139620476Y-103322380D01*
X139525238Y-103274761D01*
X139430000Y-103179523D01*
X139382380Y-102989047D01*
X139382380Y-102655714D01*
X139430000Y-102465238D01*
X139525238Y-102370000D01*
X139620476Y-102322380D01*
D11*
X141033571Y-127107142D02*
X142176428Y-127107142D01*
X141605000Y-127678571D02*
X141605000Y-126535714D01*
X141497857Y-145478571D02*
X141497857Y-146621428D01*
X100775000Y-113073571D02*
X100775000Y-111573571D01*
X101132142Y-111573571D01*
X101346428Y-111645000D01*
X101489285Y-111787857D01*
X101560714Y-111930714D01*
X101632142Y-112216428D01*
X101632142Y-112430714D01*
X101560714Y-112716428D01*
X101489285Y-112859285D01*
X101346428Y-113002142D01*
X101132142Y-113073571D01*
X100775000Y-113073571D01*
X102132142Y-112073571D02*
X102489285Y-113073571D01*
X102846428Y-112073571D02*
X102489285Y-113073571D01*
X102346428Y-113430714D01*
X102275000Y-113502142D01*
X102132142Y-113573571D01*
X103417857Y-112073571D02*
X103417857Y-113073571D01*
X103417857Y-112216428D02*
X103489285Y-112145000D01*
X103632142Y-112073571D01*
X103846428Y-112073571D01*
X103989285Y-112145000D01*
X104060714Y-112287857D01*
X104060714Y-113073571D01*
X105417857Y-113073571D02*
X105417857Y-112287857D01*
X105346428Y-112145000D01*
X105203571Y-112073571D01*
X104917857Y-112073571D01*
X104775000Y-112145000D01*
X105417857Y-113002142D02*
X105275000Y-113073571D01*
X104917857Y-113073571D01*
X104775000Y-113002142D01*
X104703571Y-112859285D01*
X104703571Y-112716428D01*
X104775000Y-112573571D01*
X104917857Y-112502142D01*
X105275000Y-112502142D01*
X105417857Y-112430714D01*
X106132142Y-113073571D02*
X106132142Y-112073571D01*
X106132142Y-112216428D02*
X106203571Y-112145000D01*
X106346428Y-112073571D01*
X106560714Y-112073571D01*
X106703571Y-112145000D01*
X106775000Y-112287857D01*
X106775000Y-113073571D01*
X106775000Y-112287857D02*
X106846428Y-112145000D01*
X106989285Y-112073571D01*
X107203571Y-112073571D01*
X107346428Y-112145000D01*
X107417857Y-112287857D01*
X107417857Y-113073571D01*
X108346428Y-113073571D02*
X108203571Y-113002142D01*
X108132142Y-112930714D01*
X108060714Y-112787857D01*
X108060714Y-112359285D01*
X108132142Y-112216428D01*
X108203571Y-112145000D01*
X108346428Y-112073571D01*
X108560714Y-112073571D01*
X108703571Y-112145000D01*
X108775000Y-112216428D01*
X108846428Y-112359285D01*
X108846428Y-112787857D01*
X108775000Y-112930714D01*
X108703571Y-113002142D01*
X108560714Y-113073571D01*
X108346428Y-113073571D01*
X102104285Y-124352857D02*
X101604285Y-124352857D01*
X101604285Y-125138571D02*
X101604285Y-123638571D01*
X102318571Y-123638571D01*
X102890000Y-125138571D02*
X102890000Y-124138571D01*
X102890000Y-124424285D02*
X102961428Y-124281428D01*
X103032857Y-124210000D01*
X103175714Y-124138571D01*
X103318571Y-124138571D01*
X104032857Y-125138571D02*
X103890000Y-125067142D01*
X103818571Y-124995714D01*
X103747142Y-124852857D01*
X103747142Y-124424285D01*
X103818571Y-124281428D01*
X103890000Y-124210000D01*
X104032857Y-124138571D01*
X104247142Y-124138571D01*
X104390000Y-124210000D01*
X104461428Y-124281428D01*
X104532857Y-124424285D01*
X104532857Y-124852857D01*
X104461428Y-124995714D01*
X104390000Y-125067142D01*
X104247142Y-125138571D01*
X104032857Y-125138571D01*
X105175714Y-124138571D02*
X105175714Y-125138571D01*
X105175714Y-124281428D02*
X105247142Y-124210000D01*
X105390000Y-124138571D01*
X105604285Y-124138571D01*
X105747142Y-124210000D01*
X105818571Y-124352857D01*
X105818571Y-125138571D01*
X106318571Y-124138571D02*
X106890000Y-124138571D01*
X106532857Y-123638571D02*
X106532857Y-124924285D01*
X106604285Y-125067142D01*
X106747142Y-125138571D01*
X106890000Y-125138571D01*
X108013571Y-137267142D02*
X109156428Y-137267142D01*
X108585000Y-137838571D02*
X108585000Y-136695714D01*
X108013571Y-124567142D02*
X109156428Y-124567142D01*
X102318571Y-138322857D02*
X102532857Y-138394285D01*
X102604285Y-138465714D01*
X102675714Y-138608571D01*
X102675714Y-138822857D01*
X102604285Y-138965714D01*
X102532857Y-139037142D01*
X102390000Y-139108571D01*
X101818571Y-139108571D01*
X101818571Y-137608571D01*
X102318571Y-137608571D01*
X102461428Y-137680000D01*
X102532857Y-137751428D01*
X102604285Y-137894285D01*
X102604285Y-138037142D01*
X102532857Y-138180000D01*
X102461428Y-138251428D01*
X102318571Y-138322857D01*
X101818571Y-138322857D01*
X103961428Y-139108571D02*
X103961428Y-138322857D01*
X103890000Y-138180000D01*
X103747142Y-138108571D01*
X103461428Y-138108571D01*
X103318571Y-138180000D01*
X103961428Y-139037142D02*
X103818571Y-139108571D01*
X103461428Y-139108571D01*
X103318571Y-139037142D01*
X103247142Y-138894285D01*
X103247142Y-138751428D01*
X103318571Y-138608571D01*
X103461428Y-138537142D01*
X103818571Y-138537142D01*
X103961428Y-138465714D01*
X105318571Y-139037142D02*
X105175714Y-139108571D01*
X104890000Y-139108571D01*
X104747142Y-139037142D01*
X104675714Y-138965714D01*
X104604285Y-138822857D01*
X104604285Y-138394285D01*
X104675714Y-138251428D01*
X104747142Y-138180000D01*
X104890000Y-138108571D01*
X105175714Y-138108571D01*
X105318571Y-138180000D01*
X105961428Y-139108571D02*
X105961428Y-137608571D01*
X106104285Y-138537142D02*
X106532857Y-139108571D01*
X106532857Y-138108571D02*
X105961428Y-138680000D01*
X108648571Y-148062142D02*
X109791428Y-148062142D01*
X109220000Y-148633571D02*
X109220000Y-147490714D01*
X108013571Y-139172142D02*
X109156428Y-139172142D01*
D12*
X150000000Y-100000000D02*
X150000000Y-150000000D01*
X100000000Y-150000000D02*
X100000000Y-100000000D01*
X150000000Y-150000000D02*
X100000000Y-150000000D01*
X100000000Y-100000000D02*
X150000000Y-100000000D01*
D13*
G04 #@! TO.C,L3*
X123140000Y-137210000D02*
X123140000Y-140210000D01*
X110540000Y-137210000D02*
X123140000Y-137210000D01*
X110540000Y-140210000D02*
X110540000Y-137210000D01*
X110540000Y-149810000D02*
X110540000Y-146810000D01*
X123140000Y-149810000D02*
X110540000Y-149810000D01*
X123140000Y-146810000D02*
X123140000Y-149810000D01*
G04 #@! TO.C,J3*
X106680000Y-125730000D02*
X106680000Y-135890000D01*
X107950000Y-125730000D02*
X100330000Y-125730000D01*
X100330000Y-125730000D02*
X100330000Y-135890000D01*
X100330000Y-135890000D02*
X107950000Y-135890000D01*
X107950000Y-135890000D02*
X107950000Y-125730000D01*
G04 #@! TO.C,IC3*
X129910000Y-135595000D02*
X131710000Y-135595000D01*
X131710000Y-132375000D02*
X129260000Y-132375000D01*
G04 #@! TO.C,IC4*
X129910000Y-147025000D02*
X131710000Y-147025000D01*
X131710000Y-143805000D02*
X129260000Y-143805000D01*
G04 #@! TO.C,J1*
X101600000Y-111125000D02*
X101600000Y-100965000D01*
X100330000Y-111125000D02*
X107950000Y-111125000D01*
X107950000Y-111125000D02*
X107950000Y-100965000D01*
X107950000Y-100965000D02*
X100330000Y-100965000D01*
X100330000Y-100965000D02*
X100330000Y-111125000D01*
G04 #@! TO.C,L2*
X123140000Y-132840000D02*
X123140000Y-135840000D01*
X123140000Y-135840000D02*
X110540000Y-135840000D01*
X110540000Y-135840000D02*
X110540000Y-132840000D01*
X110540000Y-126240000D02*
X110540000Y-123240000D01*
X110540000Y-123240000D02*
X123140000Y-123240000D01*
X123140000Y-123240000D02*
X123140000Y-126240000D01*
G04 #@! TO.C,R3*
X141740000Y-121240000D02*
X142740000Y-121240000D01*
X142740000Y-122600000D02*
X141740000Y-122600000D01*
G04 #@! TO.C,R4*
X136390000Y-114980000D02*
X135390000Y-114980000D01*
X135390000Y-113620000D02*
X136390000Y-113620000D01*
G04 #@! TO.C,R5*
X111260000Y-105365000D02*
X112260000Y-105365000D01*
X112260000Y-106725000D02*
X111260000Y-106725000D01*
G04 #@! TO.C,R6*
X131140000Y-111170000D02*
X130140000Y-111170000D01*
X130140000Y-109810000D02*
X131140000Y-109810000D01*
G04 #@! TO.C,R7*
X112260000Y-104820000D02*
X111260000Y-104820000D01*
X111260000Y-103460000D02*
X112260000Y-103460000D01*
D12*
G04 #@! TO.C,U1*
X127630000Y-107485000D02*
X127655000Y-107485000D01*
X127630000Y-103335000D02*
X127745000Y-103335000D01*
X136530000Y-103335000D02*
X136415000Y-103335000D01*
X136530000Y-107485000D02*
X136415000Y-107485000D01*
X127630000Y-107485000D02*
X127630000Y-103335000D01*
X136530000Y-107485000D02*
X136530000Y-103335000D01*
X127655000Y-107485000D02*
X127655000Y-108860000D01*
D13*
G04 #@! TO.C,C11*
X127420000Y-115070000D02*
X127420000Y-116070000D01*
X129120000Y-116070000D02*
X129120000Y-115070000D01*
G04 #@! TO.C,R8*
X125775000Y-144915000D02*
X125775000Y-145915000D01*
X124415000Y-145915000D02*
X124415000Y-144915000D01*
G04 #@! TO.C,C1*
X121420000Y-109884193D02*
X122420000Y-109884193D01*
X122420000Y-108184193D02*
X121420000Y-108184193D01*
G04 #@! TO.C,C2*
X116490000Y-106080000D02*
X117190000Y-106080000D01*
X117190000Y-107280000D02*
X116490000Y-107280000D01*
G04 #@! TO.C,C8*
X134020000Y-118460000D02*
X134020000Y-117760000D01*
X135220000Y-117760000D02*
X135220000Y-118460000D01*
G04 #@! TO.C,C9*
X136105000Y-129405000D02*
X136105000Y-128405000D01*
X134405000Y-128405000D02*
X134405000Y-129405000D01*
G04 #@! TO.C,C10*
X134405000Y-139200000D02*
X134405000Y-140200000D01*
X136105000Y-140200000D02*
X136105000Y-139200000D01*
D12*
G04 #@! TO.C,IC2*
X133120000Y-115165000D02*
X132945000Y-115165000D01*
X133120000Y-118515000D02*
X132870000Y-118515000D01*
X129770000Y-118515000D02*
X130020000Y-118515000D01*
X129770000Y-115165000D02*
X130020000Y-115165000D01*
X133120000Y-115165000D02*
X133120000Y-118515000D01*
X129770000Y-115165000D02*
X129770000Y-118515000D01*
X132945000Y-115165000D02*
X132945000Y-113915000D01*
D13*
G04 #@! TO.C,J4*
X107950000Y-149860000D02*
X107950000Y-139700000D01*
X100330000Y-149860000D02*
X107950000Y-149860000D01*
X100330000Y-139700000D02*
X100330000Y-149860000D01*
X107950000Y-139700000D02*
X100330000Y-139700000D01*
X106680000Y-139700000D02*
X106680000Y-149860000D01*
G04 #@! TO.C,L1*
X133945000Y-120955000D02*
X128945000Y-120955000D01*
X133945000Y-124155000D02*
X128945000Y-124155000D01*
G04 #@! TO.C,R1*
X117510000Y-109265000D02*
X116510000Y-109265000D01*
X116510000Y-107905000D02*
X117510000Y-107905000D01*
G04 #@! TO.C,R2*
X116510000Y-109810000D02*
X117510000Y-109810000D01*
X117510000Y-111170000D02*
X116510000Y-111170000D01*
G04 #@! TO.C,R9*
X126320000Y-145915000D02*
X126320000Y-144915000D01*
X127680000Y-144915000D02*
X127680000Y-145915000D01*
G04 #@! TO.C,R10*
X124415000Y-134485000D02*
X124415000Y-133485000D01*
X125775000Y-133485000D02*
X125775000Y-134485000D01*
G04 #@! TO.C,R11*
X126320000Y-134485000D02*
X126320000Y-133485000D01*
X127680000Y-133485000D02*
X127680000Y-134485000D01*
G04 #@! TO.C,IC1*
X116080000Y-102560000D02*
X117540000Y-102560000D01*
X116080000Y-105720000D02*
X118240000Y-105720000D01*
X116080000Y-105720000D02*
X116080000Y-104790000D01*
X116080000Y-102560000D02*
X116080000Y-103490000D01*
G04 #@! TO.C,D2*
X113695000Y-111060000D02*
X113695000Y-109920000D01*
X113695000Y-109920000D02*
X111595000Y-109920000D01*
X113695000Y-111060000D02*
X111595000Y-111060000D01*
G04 #@! TO.C,C3*
X140715000Y-111380000D02*
X148335000Y-111380000D01*
X139955000Y-112140000D02*
X140715000Y-111380000D01*
X140715000Y-119760000D02*
X139955000Y-119000000D01*
X148335000Y-119760000D02*
X140715000Y-119760000D01*
X148335000Y-111380000D02*
X148335000Y-114060000D01*
X148335000Y-119760000D02*
X148335000Y-117080000D01*
X139955000Y-112140000D02*
X139955000Y-114060000D01*
X139955000Y-119000000D02*
X139955000Y-117080000D01*
G04 #@! TO.C,C4*
X120870000Y-106790000D02*
X122970000Y-106790000D01*
X122970000Y-106790000D02*
X122970000Y-102540000D01*
X120870000Y-106790000D02*
X120870000Y-102540000D01*
G04 #@! TO.C,C5*
X116490000Y-101000000D02*
X117190000Y-101000000D01*
X117190000Y-102200000D02*
X116490000Y-102200000D01*
D12*
G04 #@! TO.C,C6*
X149760000Y-124660000D02*
X149760000Y-149660000D01*
X149760000Y-149660000D02*
X137260000Y-149660000D01*
X137260000Y-149660000D02*
X137260000Y-124660000D01*
X137260000Y-124660000D02*
X149760000Y-124660000D01*
D13*
G04 #@! TO.C,C7*
X138010000Y-118610000D02*
X138010000Y-117610000D01*
X136310000Y-117610000D02*
X136310000Y-118610000D01*
G04 #@! TO.C,D1*
X120420000Y-110724193D02*
X122970000Y-110724193D01*
X120420000Y-112424193D02*
X122970000Y-112424193D01*
X120420000Y-110724193D02*
X120420000Y-112424193D01*
G04 #@! TO.C,D3*
X113695000Y-109155000D02*
X111595000Y-109155000D01*
X113695000Y-108015000D02*
X111595000Y-108015000D01*
X113695000Y-109155000D02*
X113695000Y-108015000D01*
G04 #@! TO.C,D4*
X110260000Y-100750000D02*
X110260000Y-102450000D01*
X110260000Y-102450000D02*
X112810000Y-102450000D01*
X110260000Y-100750000D02*
X112810000Y-100750000D01*
G04 #@! TO.C,D5*
X118235000Y-121140000D02*
X111635000Y-121140000D01*
X111635000Y-118440000D02*
X111635000Y-115240000D01*
X118235000Y-118440000D02*
X118235000Y-115240000D01*
X111635000Y-112540000D02*
X111635000Y-113340000D01*
X118235000Y-112540000D02*
X111635000Y-112540000D01*
X118235000Y-113340000D02*
X118235000Y-112540000D01*
X118237000Y-121158000D02*
X118237000Y-120396000D01*
X118237000Y-120396000D02*
X120269000Y-120396000D01*
X120269000Y-120396000D02*
X120269000Y-120396000D01*
X111633000Y-120396000D02*
X111633000Y-121158000D01*
X111633000Y-121158000D02*
X111633000Y-121158000D01*
G04 #@! TO.C,D6*
X121040000Y-121660000D02*
X121040000Y-115960000D01*
X125340000Y-121660000D02*
X125340000Y-115960000D01*
X121040000Y-121660000D02*
X125340000Y-121660000D01*
G04 #@! TO.C,D7*
X133305000Y-131190000D02*
X126405000Y-131190000D01*
X133305000Y-127890000D02*
X126405000Y-127890000D01*
X133305000Y-131190000D02*
X133305000Y-127890000D01*
G04 #@! TO.C,D8*
X133305000Y-142620000D02*
X133305000Y-139320000D01*
X133305000Y-139320000D02*
X126405000Y-139320000D01*
X133305000Y-142620000D02*
X126405000Y-142620000D01*
G04 #@! TO.C,R12*
X136135000Y-133385000D02*
X136135000Y-134585000D01*
X134375000Y-134585000D02*
X134375000Y-133385000D01*
G04 #@! TO.C,R13*
X134375000Y-145935000D02*
X134375000Y-144735000D01*
X136135000Y-144735000D02*
X136135000Y-145935000D01*
G04 #@! TO.C,J2*
X143450000Y-101540000D02*
X144780000Y-101540000D01*
X143450000Y-102870000D02*
X143450000Y-101540000D01*
X146050000Y-101540000D02*
X148650000Y-101540000D01*
X146050000Y-104140000D02*
X146050000Y-101540000D01*
X143450000Y-104140000D02*
X146050000Y-104140000D01*
X148650000Y-101540000D02*
X148650000Y-109280000D01*
X143450000Y-104140000D02*
X143450000Y-109280000D01*
X143450000Y-109280000D02*
X148650000Y-109280000D01*
G04 #@! TD*
G04 #@! TO.C,L3*
D12*
X123023333Y-136977380D02*
X122547142Y-136977380D01*
X122547142Y-135977380D01*
X123261428Y-135977380D02*
X123880476Y-135977380D01*
X123547142Y-136358333D01*
X123690000Y-136358333D01*
X123785238Y-136405952D01*
X123832857Y-136453571D01*
X123880476Y-136548809D01*
X123880476Y-136786904D01*
X123832857Y-136882142D01*
X123785238Y-136929761D01*
X123690000Y-136977380D01*
X123404285Y-136977380D01*
X123309047Y-136929761D01*
X123261428Y-136882142D01*
G04 #@! TO.C,J3*
X98512380Y-131143333D02*
X99226666Y-131143333D01*
X99369523Y-131190952D01*
X99464761Y-131286190D01*
X99512380Y-131429047D01*
X99512380Y-131524285D01*
X98512380Y-130762380D02*
X98512380Y-130143333D01*
X98893333Y-130476666D01*
X98893333Y-130333809D01*
X98940952Y-130238571D01*
X98988571Y-130190952D01*
X99083809Y-130143333D01*
X99321904Y-130143333D01*
X99417142Y-130190952D01*
X99464761Y-130238571D01*
X99512380Y-130333809D01*
X99512380Y-130619523D01*
X99464761Y-130714761D01*
X99417142Y-130762380D01*
G04 #@! TO.C,IC3*
X129833809Y-136977380D02*
X129833809Y-135977380D01*
X130881428Y-136882142D02*
X130833809Y-136929761D01*
X130690952Y-136977380D01*
X130595714Y-136977380D01*
X130452857Y-136929761D01*
X130357619Y-136834523D01*
X130310000Y-136739285D01*
X130262380Y-136548809D01*
X130262380Y-136405952D01*
X130310000Y-136215476D01*
X130357619Y-136120238D01*
X130452857Y-136025000D01*
X130595714Y-135977380D01*
X130690952Y-135977380D01*
X130833809Y-136025000D01*
X130881428Y-136072619D01*
X131214761Y-135977380D02*
X131833809Y-135977380D01*
X131500476Y-136358333D01*
X131643333Y-136358333D01*
X131738571Y-136405952D01*
X131786190Y-136453571D01*
X131833809Y-136548809D01*
X131833809Y-136786904D01*
X131786190Y-136882142D01*
X131738571Y-136929761D01*
X131643333Y-136977380D01*
X131357619Y-136977380D01*
X131262380Y-136929761D01*
X131214761Y-136882142D01*
G04 #@! TO.C,IC4*
X129833809Y-148407380D02*
X129833809Y-147407380D01*
X130881428Y-148312142D02*
X130833809Y-148359761D01*
X130690952Y-148407380D01*
X130595714Y-148407380D01*
X130452857Y-148359761D01*
X130357619Y-148264523D01*
X130310000Y-148169285D01*
X130262380Y-147978809D01*
X130262380Y-147835952D01*
X130310000Y-147645476D01*
X130357619Y-147550238D01*
X130452857Y-147455000D01*
X130595714Y-147407380D01*
X130690952Y-147407380D01*
X130833809Y-147455000D01*
X130881428Y-147502619D01*
X131738571Y-147740714D02*
X131738571Y-148407380D01*
X131500476Y-147359761D02*
X131262380Y-148074047D01*
X131881428Y-148074047D01*
G04 #@! TO.C,J1*
X100631666Y-113752380D02*
X100631666Y-114466666D01*
X100584047Y-114609523D01*
X100488809Y-114704761D01*
X100345952Y-114752380D01*
X100250714Y-114752380D01*
X101631666Y-114752380D02*
X101060238Y-114752380D01*
X101345952Y-114752380D02*
X101345952Y-113752380D01*
X101250714Y-113895238D01*
X101155476Y-113990476D01*
X101060238Y-114038095D01*
G04 #@! TO.C,L2*
X124293333Y-124912380D02*
X123817142Y-124912380D01*
X123817142Y-123912380D01*
X124579047Y-124007619D02*
X124626666Y-123960000D01*
X124721904Y-123912380D01*
X124960000Y-123912380D01*
X125055238Y-123960000D01*
X125102857Y-124007619D01*
X125150476Y-124102857D01*
X125150476Y-124198095D01*
X125102857Y-124340952D01*
X124531428Y-124912380D01*
X125150476Y-124912380D01*
G04 #@! TO.C,R3*
X142073333Y-123822380D02*
X141740000Y-123346190D01*
X141501904Y-123822380D02*
X141501904Y-122822380D01*
X141882857Y-122822380D01*
X141978095Y-122870000D01*
X142025714Y-122917619D01*
X142073333Y-123012857D01*
X142073333Y-123155714D01*
X142025714Y-123250952D01*
X141978095Y-123298571D01*
X141882857Y-123346190D01*
X141501904Y-123346190D01*
X142406666Y-122822380D02*
X143025714Y-122822380D01*
X142692380Y-123203333D01*
X142835238Y-123203333D01*
X142930476Y-123250952D01*
X142978095Y-123298571D01*
X143025714Y-123393809D01*
X143025714Y-123631904D01*
X142978095Y-123727142D01*
X142930476Y-123774761D01*
X142835238Y-123822380D01*
X142549523Y-123822380D01*
X142454285Y-123774761D01*
X142406666Y-123727142D01*
G04 #@! TO.C,R4*
X135723333Y-113302380D02*
X135390000Y-112826190D01*
X135151904Y-113302380D02*
X135151904Y-112302380D01*
X135532857Y-112302380D01*
X135628095Y-112350000D01*
X135675714Y-112397619D01*
X135723333Y-112492857D01*
X135723333Y-112635714D01*
X135675714Y-112730952D01*
X135628095Y-112778571D01*
X135532857Y-112826190D01*
X135151904Y-112826190D01*
X136580476Y-112635714D02*
X136580476Y-113302380D01*
X136342380Y-112254761D02*
X136104285Y-112969047D01*
X136723333Y-112969047D01*
G04 #@! TO.C,R5*
X108723133Y-106548180D02*
X108389800Y-106071990D01*
X108151704Y-106548180D02*
X108151704Y-105548180D01*
X108532657Y-105548180D01*
X108627895Y-105595800D01*
X108675514Y-105643419D01*
X108723133Y-105738657D01*
X108723133Y-105881514D01*
X108675514Y-105976752D01*
X108627895Y-106024371D01*
X108532657Y-106071990D01*
X108151704Y-106071990D01*
X109627895Y-105548180D02*
X109151704Y-105548180D01*
X109104085Y-106024371D01*
X109151704Y-105976752D01*
X109246942Y-105929133D01*
X109485038Y-105929133D01*
X109580276Y-105976752D01*
X109627895Y-106024371D01*
X109675514Y-106119609D01*
X109675514Y-106357704D01*
X109627895Y-106452942D01*
X109580276Y-106500561D01*
X109485038Y-106548180D01*
X109246942Y-106548180D01*
X109151704Y-106500561D01*
X109104085Y-106452942D01*
G04 #@! TO.C,R6*
X127382333Y-110942380D02*
X127049000Y-110466190D01*
X126810904Y-110942380D02*
X126810904Y-109942380D01*
X127191857Y-109942380D01*
X127287095Y-109990000D01*
X127334714Y-110037619D01*
X127382333Y-110132857D01*
X127382333Y-110275714D01*
X127334714Y-110370952D01*
X127287095Y-110418571D01*
X127191857Y-110466190D01*
X126810904Y-110466190D01*
X128239476Y-109942380D02*
X128049000Y-109942380D01*
X127953761Y-109990000D01*
X127906142Y-110037619D01*
X127810904Y-110180476D01*
X127763285Y-110370952D01*
X127763285Y-110751904D01*
X127810904Y-110847142D01*
X127858523Y-110894761D01*
X127953761Y-110942380D01*
X128144238Y-110942380D01*
X128239476Y-110894761D01*
X128287095Y-110847142D01*
X128334714Y-110751904D01*
X128334714Y-110513809D01*
X128287095Y-110418571D01*
X128239476Y-110370952D01*
X128144238Y-110323333D01*
X127953761Y-110323333D01*
X127858523Y-110370952D01*
X127810904Y-110418571D01*
X127763285Y-110513809D01*
G04 #@! TO.C,R7*
X108697733Y-104668580D02*
X108364400Y-104192390D01*
X108126304Y-104668580D02*
X108126304Y-103668580D01*
X108507257Y-103668580D01*
X108602495Y-103716200D01*
X108650114Y-103763819D01*
X108697733Y-103859057D01*
X108697733Y-104001914D01*
X108650114Y-104097152D01*
X108602495Y-104144771D01*
X108507257Y-104192390D01*
X108126304Y-104192390D01*
X109031066Y-103668580D02*
X109697733Y-103668580D01*
X109269161Y-104668580D01*
G04 #@! TO.C,U1*
X125944380Y-108076904D02*
X126753904Y-108076904D01*
X126849142Y-108029285D01*
X126896761Y-107981666D01*
X126944380Y-107886428D01*
X126944380Y-107695952D01*
X126896761Y-107600714D01*
X126849142Y-107553095D01*
X126753904Y-107505476D01*
X125944380Y-107505476D01*
X126944380Y-106505476D02*
X126944380Y-107076904D01*
X126944380Y-106791190D02*
X125944380Y-106791190D01*
X126087238Y-106886428D01*
X126182476Y-106981666D01*
X126230095Y-107076904D01*
G04 #@! TO.C,C11*
X127003511Y-116190594D02*
X127051130Y-116238213D01*
X127098749Y-116381070D01*
X127098749Y-116476308D01*
X127051130Y-116619165D01*
X126955892Y-116714403D01*
X126860654Y-116762022D01*
X126670178Y-116809641D01*
X126527321Y-116809641D01*
X126336845Y-116762022D01*
X126241607Y-116714403D01*
X126146369Y-116619165D01*
X126098749Y-116476308D01*
X126098749Y-116381070D01*
X126146369Y-116238213D01*
X126193988Y-116190594D01*
X127098749Y-115238213D02*
X127098749Y-115809641D01*
X127098749Y-115523927D02*
X126098749Y-115523927D01*
X126241607Y-115619165D01*
X126336845Y-115714403D01*
X126384464Y-115809641D01*
X127098749Y-114285832D02*
X127098749Y-114857260D01*
X127098749Y-114571546D02*
X126098749Y-114571546D01*
X126241607Y-114666784D01*
X126336845Y-114762022D01*
X126384464Y-114857260D01*
G04 #@! TO.C,R8*
X125547380Y-148756666D02*
X125071190Y-149090000D01*
X125547380Y-149328095D02*
X124547380Y-149328095D01*
X124547380Y-148947142D01*
X124595000Y-148851904D01*
X124642619Y-148804285D01*
X124737857Y-148756666D01*
X124880714Y-148756666D01*
X124975952Y-148804285D01*
X125023571Y-148851904D01*
X125071190Y-148947142D01*
X125071190Y-149328095D01*
X124975952Y-148185238D02*
X124928333Y-148280476D01*
X124880714Y-148328095D01*
X124785476Y-148375714D01*
X124737857Y-148375714D01*
X124642619Y-148328095D01*
X124595000Y-148280476D01*
X124547380Y-148185238D01*
X124547380Y-147994761D01*
X124595000Y-147899523D01*
X124642619Y-147851904D01*
X124737857Y-147804285D01*
X124785476Y-147804285D01*
X124880714Y-147851904D01*
X124928333Y-147899523D01*
X124975952Y-147994761D01*
X124975952Y-148185238D01*
X125023571Y-148280476D01*
X125071190Y-148328095D01*
X125166428Y-148375714D01*
X125356904Y-148375714D01*
X125452142Y-148328095D01*
X125499761Y-148280476D01*
X125547380Y-148185238D01*
X125547380Y-147994761D01*
X125499761Y-147899523D01*
X125452142Y-147851904D01*
X125356904Y-147804285D01*
X125166428Y-147804285D01*
X125071190Y-147851904D01*
X125023571Y-147899523D01*
X124975952Y-147994761D01*
G04 #@! TO.C,C1*
X124928333Y-109391335D02*
X124880714Y-109438954D01*
X124737857Y-109486573D01*
X124642619Y-109486573D01*
X124499761Y-109438954D01*
X124404523Y-109343716D01*
X124356904Y-109248478D01*
X124309285Y-109058002D01*
X124309285Y-108915145D01*
X124356904Y-108724669D01*
X124404523Y-108629431D01*
X124499761Y-108534193D01*
X124642619Y-108486573D01*
X124737857Y-108486573D01*
X124880714Y-108534193D01*
X124928333Y-108581812D01*
X125880714Y-109486573D02*
X125309285Y-109486573D01*
X125595000Y-109486573D02*
X125595000Y-108486573D01*
X125499761Y-108629431D01*
X125404523Y-108724669D01*
X125309285Y-108772288D01*
G04 #@! TO.C,C2*
X119441933Y-107037142D02*
X119394314Y-107084761D01*
X119251457Y-107132380D01*
X119156219Y-107132380D01*
X119013361Y-107084761D01*
X118918123Y-106989523D01*
X118870504Y-106894285D01*
X118822885Y-106703809D01*
X118822885Y-106560952D01*
X118870504Y-106370476D01*
X118918123Y-106275238D01*
X119013361Y-106180000D01*
X119156219Y-106132380D01*
X119251457Y-106132380D01*
X119394314Y-106180000D01*
X119441933Y-106227619D01*
X119822885Y-106227619D02*
X119870504Y-106180000D01*
X119965742Y-106132380D01*
X120203838Y-106132380D01*
X120299076Y-106180000D01*
X120346695Y-106227619D01*
X120394314Y-106322857D01*
X120394314Y-106418095D01*
X120346695Y-106560952D01*
X119775266Y-107132380D01*
X120394314Y-107132380D01*
G04 #@! TO.C,C8*
X135612142Y-121451666D02*
X135659761Y-121499285D01*
X135707380Y-121642142D01*
X135707380Y-121737380D01*
X135659761Y-121880238D01*
X135564523Y-121975476D01*
X135469285Y-122023095D01*
X135278809Y-122070714D01*
X135135952Y-122070714D01*
X134945476Y-122023095D01*
X134850238Y-121975476D01*
X134755000Y-121880238D01*
X134707380Y-121737380D01*
X134707380Y-121642142D01*
X134755000Y-121499285D01*
X134802619Y-121451666D01*
X135135952Y-120880238D02*
X135088333Y-120975476D01*
X135040714Y-121023095D01*
X134945476Y-121070714D01*
X134897857Y-121070714D01*
X134802619Y-121023095D01*
X134755000Y-120975476D01*
X134707380Y-120880238D01*
X134707380Y-120689761D01*
X134755000Y-120594523D01*
X134802619Y-120546904D01*
X134897857Y-120499285D01*
X134945476Y-120499285D01*
X135040714Y-120546904D01*
X135088333Y-120594523D01*
X135135952Y-120689761D01*
X135135952Y-120880238D01*
X135183571Y-120975476D01*
X135231190Y-121023095D01*
X135326428Y-121070714D01*
X135516904Y-121070714D01*
X135612142Y-121023095D01*
X135659761Y-120975476D01*
X135707380Y-120880238D01*
X135707380Y-120689761D01*
X135659761Y-120594523D01*
X135612142Y-120546904D01*
X135516904Y-120499285D01*
X135326428Y-120499285D01*
X135231190Y-120546904D01*
X135183571Y-120594523D01*
X135135952Y-120689761D01*
G04 #@! TO.C,C9*
X135612142Y-125789666D02*
X135659761Y-125837285D01*
X135707380Y-125980142D01*
X135707380Y-126075380D01*
X135659761Y-126218238D01*
X135564523Y-126313476D01*
X135469285Y-126361095D01*
X135278809Y-126408714D01*
X135135952Y-126408714D01*
X134945476Y-126361095D01*
X134850238Y-126313476D01*
X134755000Y-126218238D01*
X134707380Y-126075380D01*
X134707380Y-125980142D01*
X134755000Y-125837285D01*
X134802619Y-125789666D01*
X135707380Y-125313476D02*
X135707380Y-125123000D01*
X135659761Y-125027761D01*
X135612142Y-124980142D01*
X135469285Y-124884904D01*
X135278809Y-124837285D01*
X134897857Y-124837285D01*
X134802619Y-124884904D01*
X134755000Y-124932523D01*
X134707380Y-125027761D01*
X134707380Y-125218238D01*
X134755000Y-125313476D01*
X134802619Y-125361095D01*
X134897857Y-125408714D01*
X135135952Y-125408714D01*
X135231190Y-125361095D01*
X135278809Y-125313476D01*
X135326428Y-125218238D01*
X135326428Y-125027761D01*
X135278809Y-124932523D01*
X135231190Y-124884904D01*
X135135952Y-124837285D01*
G04 #@! TO.C,C10*
X134189742Y-139657057D02*
X134237361Y-139704676D01*
X134284980Y-139847533D01*
X134284980Y-139942771D01*
X134237361Y-140085628D01*
X134142123Y-140180866D01*
X134046885Y-140228485D01*
X133856409Y-140276104D01*
X133713552Y-140276104D01*
X133523076Y-140228485D01*
X133427838Y-140180866D01*
X133332600Y-140085628D01*
X133284980Y-139942771D01*
X133284980Y-139847533D01*
X133332600Y-139704676D01*
X133380219Y-139657057D01*
X134284980Y-138704676D02*
X134284980Y-139276104D01*
X134284980Y-138990390D02*
X133284980Y-138990390D01*
X133427838Y-139085628D01*
X133523076Y-139180866D01*
X133570695Y-139276104D01*
X133284980Y-138085628D02*
X133284980Y-137990390D01*
X133332600Y-137895152D01*
X133380219Y-137847533D01*
X133475457Y-137799914D01*
X133665933Y-137752295D01*
X133904028Y-137752295D01*
X134094504Y-137799914D01*
X134189742Y-137847533D01*
X134237361Y-137895152D01*
X134284980Y-137990390D01*
X134284980Y-138085628D01*
X134237361Y-138180866D01*
X134189742Y-138228485D01*
X134094504Y-138276104D01*
X133904028Y-138323723D01*
X133665933Y-138323723D01*
X133475457Y-138276104D01*
X133380219Y-138228485D01*
X133332600Y-138180866D01*
X133284980Y-138085628D01*
G04 #@! TO.C,IC2*
X132813749Y-113221927D02*
X131813749Y-113221927D01*
X132718511Y-112174308D02*
X132766130Y-112221927D01*
X132813749Y-112364784D01*
X132813749Y-112460022D01*
X132766130Y-112602879D01*
X132670892Y-112698117D01*
X132575654Y-112745737D01*
X132385178Y-112793356D01*
X132242321Y-112793356D01*
X132051845Y-112745737D01*
X131956607Y-112698117D01*
X131861369Y-112602879D01*
X131813749Y-112460022D01*
X131813749Y-112364784D01*
X131861369Y-112221927D01*
X131908988Y-112174308D01*
X131908988Y-111793356D02*
X131861369Y-111745737D01*
X131813749Y-111650498D01*
X131813749Y-111412403D01*
X131861369Y-111317165D01*
X131908988Y-111269546D01*
X132004226Y-111221927D01*
X132099464Y-111221927D01*
X132242321Y-111269546D01*
X132813749Y-111840975D01*
X132813749Y-111221927D01*
G04 #@! TO.C,J4*
X98512380Y-145113333D02*
X99226666Y-145113333D01*
X99369523Y-145160952D01*
X99464761Y-145256190D01*
X99512380Y-145399047D01*
X99512380Y-145494285D01*
X98845714Y-144208571D02*
X99512380Y-144208571D01*
X98464761Y-144446666D02*
X99179047Y-144684761D01*
X99179047Y-144065714D01*
G04 #@! TO.C,L1*
X127646133Y-121889780D02*
X127169942Y-121889780D01*
X127169942Y-120889780D01*
X128503276Y-121889780D02*
X127931847Y-121889780D01*
X128217561Y-121889780D02*
X128217561Y-120889780D01*
X128122323Y-121032638D01*
X128027085Y-121127876D01*
X127931847Y-121175495D01*
G04 #@! TO.C,R1*
X119543533Y-108249980D02*
X119210200Y-107773790D01*
X118972104Y-108249980D02*
X118972104Y-107249980D01*
X119353057Y-107249980D01*
X119448295Y-107297600D01*
X119495914Y-107345219D01*
X119543533Y-107440457D01*
X119543533Y-107583314D01*
X119495914Y-107678552D01*
X119448295Y-107726171D01*
X119353057Y-107773790D01*
X118972104Y-107773790D01*
X120495914Y-108249980D02*
X119924485Y-108249980D01*
X120210200Y-108249980D02*
X120210200Y-107249980D01*
X120114961Y-107392838D01*
X120019723Y-107488076D01*
X119924485Y-107535695D01*
G04 #@! TO.C,R2*
X119289533Y-111094780D02*
X118956200Y-110618590D01*
X118718104Y-111094780D02*
X118718104Y-110094780D01*
X119099057Y-110094780D01*
X119194295Y-110142400D01*
X119241914Y-110190019D01*
X119289533Y-110285257D01*
X119289533Y-110428114D01*
X119241914Y-110523352D01*
X119194295Y-110570971D01*
X119099057Y-110618590D01*
X118718104Y-110618590D01*
X119670485Y-110190019D02*
X119718104Y-110142400D01*
X119813342Y-110094780D01*
X120051438Y-110094780D01*
X120146676Y-110142400D01*
X120194295Y-110190019D01*
X120241914Y-110285257D01*
X120241914Y-110380495D01*
X120194295Y-110523352D01*
X119622866Y-111094780D01*
X120241914Y-111094780D01*
G04 #@! TO.C,R9*
X127452380Y-148756666D02*
X126976190Y-149090000D01*
X127452380Y-149328095D02*
X126452380Y-149328095D01*
X126452380Y-148947142D01*
X126500000Y-148851904D01*
X126547619Y-148804285D01*
X126642857Y-148756666D01*
X126785714Y-148756666D01*
X126880952Y-148804285D01*
X126928571Y-148851904D01*
X126976190Y-148947142D01*
X126976190Y-149328095D01*
X127452380Y-148280476D02*
X127452380Y-148090000D01*
X127404761Y-147994761D01*
X127357142Y-147947142D01*
X127214285Y-147851904D01*
X127023809Y-147804285D01*
X126642857Y-147804285D01*
X126547619Y-147851904D01*
X126500000Y-147899523D01*
X126452380Y-147994761D01*
X126452380Y-148185238D01*
X126500000Y-148280476D01*
X126547619Y-148328095D01*
X126642857Y-148375714D01*
X126880952Y-148375714D01*
X126976190Y-148328095D01*
X127023809Y-148280476D01*
X127071428Y-148185238D01*
X127071428Y-147994761D01*
X127023809Y-147899523D01*
X126976190Y-147851904D01*
X126880952Y-147804285D01*
G04 #@! TO.C,R10*
X125547380Y-138437857D02*
X125071190Y-138771190D01*
X125547380Y-139009285D02*
X124547380Y-139009285D01*
X124547380Y-138628333D01*
X124595000Y-138533095D01*
X124642619Y-138485476D01*
X124737857Y-138437857D01*
X124880714Y-138437857D01*
X124975952Y-138485476D01*
X125023571Y-138533095D01*
X125071190Y-138628333D01*
X125071190Y-139009285D01*
X125547380Y-137485476D02*
X125547380Y-138056904D01*
X125547380Y-137771190D02*
X124547380Y-137771190D01*
X124690238Y-137866428D01*
X124785476Y-137961666D01*
X124833095Y-138056904D01*
X124547380Y-136866428D02*
X124547380Y-136771190D01*
X124595000Y-136675952D01*
X124642619Y-136628333D01*
X124737857Y-136580714D01*
X124928333Y-136533095D01*
X125166428Y-136533095D01*
X125356904Y-136580714D01*
X125452142Y-136628333D01*
X125499761Y-136675952D01*
X125547380Y-136771190D01*
X125547380Y-136866428D01*
X125499761Y-136961666D01*
X125452142Y-137009285D01*
X125356904Y-137056904D01*
X125166428Y-137104523D01*
X124928333Y-137104523D01*
X124737857Y-137056904D01*
X124642619Y-137009285D01*
X124595000Y-136961666D01*
X124547380Y-136866428D01*
G04 #@! TO.C,R11*
X127452380Y-138437857D02*
X126976190Y-138771190D01*
X127452380Y-139009285D02*
X126452380Y-139009285D01*
X126452380Y-138628333D01*
X126500000Y-138533095D01*
X126547619Y-138485476D01*
X126642857Y-138437857D01*
X126785714Y-138437857D01*
X126880952Y-138485476D01*
X126928571Y-138533095D01*
X126976190Y-138628333D01*
X126976190Y-139009285D01*
X127452380Y-137485476D02*
X127452380Y-138056904D01*
X127452380Y-137771190D02*
X126452380Y-137771190D01*
X126595238Y-137866428D01*
X126690476Y-137961666D01*
X126738095Y-138056904D01*
X127452380Y-136533095D02*
X127452380Y-137104523D01*
X127452380Y-136818809D02*
X126452380Y-136818809D01*
X126595238Y-136914047D01*
X126690476Y-137009285D01*
X126738095Y-137104523D01*
G04 #@! TO.C,IC1*
X119832380Y-105116190D02*
X118832380Y-105116190D01*
X119737142Y-104068571D02*
X119784761Y-104116190D01*
X119832380Y-104259047D01*
X119832380Y-104354285D01*
X119784761Y-104497142D01*
X119689523Y-104592380D01*
X119594285Y-104640000D01*
X119403809Y-104687619D01*
X119260952Y-104687619D01*
X119070476Y-104640000D01*
X118975238Y-104592380D01*
X118880000Y-104497142D01*
X118832380Y-104354285D01*
X118832380Y-104259047D01*
X118880000Y-104116190D01*
X118927619Y-104068571D01*
X119832380Y-103116190D02*
X119832380Y-103687619D01*
X119832380Y-103401904D02*
X118832380Y-103401904D01*
X118975238Y-103497142D01*
X119070476Y-103592380D01*
X119118095Y-103687619D01*
G04 #@! TO.C,D2*
X108481904Y-110942380D02*
X108481904Y-109942380D01*
X108720000Y-109942380D01*
X108862857Y-109990000D01*
X108958095Y-110085238D01*
X109005714Y-110180476D01*
X109053333Y-110370952D01*
X109053333Y-110513809D01*
X109005714Y-110704285D01*
X108958095Y-110799523D01*
X108862857Y-110894761D01*
X108720000Y-110942380D01*
X108481904Y-110942380D01*
X109434285Y-110037619D02*
X109481904Y-109990000D01*
X109577142Y-109942380D01*
X109815238Y-109942380D01*
X109910476Y-109990000D01*
X109958095Y-110037619D01*
X110005714Y-110132857D01*
X110005714Y-110228095D01*
X109958095Y-110370952D01*
X109386666Y-110942380D01*
X110005714Y-110942380D01*
G04 #@! TO.C,C3*
X144283133Y-120829342D02*
X144235514Y-120876961D01*
X144092657Y-120924580D01*
X143997419Y-120924580D01*
X143854561Y-120876961D01*
X143759323Y-120781723D01*
X143711704Y-120686485D01*
X143664085Y-120496009D01*
X143664085Y-120353152D01*
X143711704Y-120162676D01*
X143759323Y-120067438D01*
X143854561Y-119972200D01*
X143997419Y-119924580D01*
X144092657Y-119924580D01*
X144235514Y-119972200D01*
X144283133Y-120019819D01*
X144616466Y-119924580D02*
X145235514Y-119924580D01*
X144902180Y-120305533D01*
X145045038Y-120305533D01*
X145140276Y-120353152D01*
X145187895Y-120400771D01*
X145235514Y-120496009D01*
X145235514Y-120734104D01*
X145187895Y-120829342D01*
X145140276Y-120876961D01*
X145045038Y-120924580D01*
X144759323Y-120924580D01*
X144664085Y-120876961D01*
X144616466Y-120829342D01*
X138984047Y-119551428D02*
X139745952Y-119551428D01*
X139365000Y-119932380D02*
X139365000Y-119170476D01*
G04 #@! TO.C,C4*
X124182142Y-104306666D02*
X124229761Y-104354285D01*
X124277380Y-104497142D01*
X124277380Y-104592380D01*
X124229761Y-104735238D01*
X124134523Y-104830476D01*
X124039285Y-104878095D01*
X123848809Y-104925714D01*
X123705952Y-104925714D01*
X123515476Y-104878095D01*
X123420238Y-104830476D01*
X123325000Y-104735238D01*
X123277380Y-104592380D01*
X123277380Y-104497142D01*
X123325000Y-104354285D01*
X123372619Y-104306666D01*
X123610714Y-103449523D02*
X124277380Y-103449523D01*
X123229761Y-103687619D02*
X123944047Y-103925714D01*
X123944047Y-103306666D01*
G04 #@! TO.C,C5*
X119441933Y-101601542D02*
X119394314Y-101649161D01*
X119251457Y-101696780D01*
X119156219Y-101696780D01*
X119013361Y-101649161D01*
X118918123Y-101553923D01*
X118870504Y-101458685D01*
X118822885Y-101268209D01*
X118822885Y-101125352D01*
X118870504Y-100934876D01*
X118918123Y-100839638D01*
X119013361Y-100744400D01*
X119156219Y-100696780D01*
X119251457Y-100696780D01*
X119394314Y-100744400D01*
X119441933Y-100792019D01*
X120346695Y-100696780D02*
X119870504Y-100696780D01*
X119822885Y-101172971D01*
X119870504Y-101125352D01*
X119965742Y-101077733D01*
X120203838Y-101077733D01*
X120299076Y-101125352D01*
X120346695Y-101172971D01*
X120394314Y-101268209D01*
X120394314Y-101506304D01*
X120346695Y-101601542D01*
X120299076Y-101649161D01*
X120203838Y-101696780D01*
X119965742Y-101696780D01*
X119870504Y-101649161D01*
X119822885Y-101601542D01*
G04 #@! TO.C,C6*
X147788333Y-124182142D02*
X147740714Y-124229761D01*
X147597857Y-124277380D01*
X147502619Y-124277380D01*
X147359761Y-124229761D01*
X147264523Y-124134523D01*
X147216904Y-124039285D01*
X147169285Y-123848809D01*
X147169285Y-123705952D01*
X147216904Y-123515476D01*
X147264523Y-123420238D01*
X147359761Y-123325000D01*
X147502619Y-123277380D01*
X147597857Y-123277380D01*
X147740714Y-123325000D01*
X147788333Y-123372619D01*
X148645476Y-123277380D02*
X148455000Y-123277380D01*
X148359761Y-123325000D01*
X148312142Y-123372619D01*
X148216904Y-123515476D01*
X148169285Y-123705952D01*
X148169285Y-124086904D01*
X148216904Y-124182142D01*
X148264523Y-124229761D01*
X148359761Y-124277380D01*
X148550238Y-124277380D01*
X148645476Y-124229761D01*
X148693095Y-124182142D01*
X148740714Y-124086904D01*
X148740714Y-123848809D01*
X148693095Y-123753571D01*
X148645476Y-123705952D01*
X148550238Y-123658333D01*
X148359761Y-123658333D01*
X148264523Y-123705952D01*
X148216904Y-123753571D01*
X148169285Y-123848809D01*
G04 #@! TO.C,C7*
X137517142Y-121451666D02*
X137564761Y-121499285D01*
X137612380Y-121642142D01*
X137612380Y-121737380D01*
X137564761Y-121880238D01*
X137469523Y-121975476D01*
X137374285Y-122023095D01*
X137183809Y-122070714D01*
X137040952Y-122070714D01*
X136850476Y-122023095D01*
X136755238Y-121975476D01*
X136660000Y-121880238D01*
X136612380Y-121737380D01*
X136612380Y-121642142D01*
X136660000Y-121499285D01*
X136707619Y-121451666D01*
X136612380Y-121118333D02*
X136612380Y-120451666D01*
X137612380Y-120880238D01*
G04 #@! TO.C,D1*
X123798104Y-112517180D02*
X123798104Y-111517180D01*
X124036200Y-111517180D01*
X124179057Y-111564800D01*
X124274295Y-111660038D01*
X124321914Y-111755276D01*
X124369533Y-111945752D01*
X124369533Y-112088609D01*
X124321914Y-112279085D01*
X124274295Y-112374323D01*
X124179057Y-112469561D01*
X124036200Y-112517180D01*
X123798104Y-112517180D01*
X125321914Y-112517180D02*
X124750485Y-112517180D01*
X125036200Y-112517180D02*
X125036200Y-111517180D01*
X124940961Y-111660038D01*
X124845723Y-111755276D01*
X124750485Y-111802895D01*
G04 #@! TO.C,D3*
X108481904Y-109037380D02*
X108481904Y-108037380D01*
X108720000Y-108037380D01*
X108862857Y-108085000D01*
X108958095Y-108180238D01*
X109005714Y-108275476D01*
X109053333Y-108465952D01*
X109053333Y-108608809D01*
X109005714Y-108799285D01*
X108958095Y-108894523D01*
X108862857Y-108989761D01*
X108720000Y-109037380D01*
X108481904Y-109037380D01*
X109386666Y-108037380D02*
X110005714Y-108037380D01*
X109672380Y-108418333D01*
X109815238Y-108418333D01*
X109910476Y-108465952D01*
X109958095Y-108513571D01*
X110005714Y-108608809D01*
X110005714Y-108846904D01*
X109958095Y-108942142D01*
X109910476Y-108989761D01*
X109815238Y-109037380D01*
X109529523Y-109037380D01*
X109434285Y-108989761D01*
X109386666Y-108942142D01*
G04 #@! TO.C,D4*
X108481904Y-102585780D02*
X108481904Y-101585780D01*
X108720000Y-101585780D01*
X108862857Y-101633400D01*
X108958095Y-101728638D01*
X109005714Y-101823876D01*
X109053333Y-102014352D01*
X109053333Y-102157209D01*
X109005714Y-102347685D01*
X108958095Y-102442923D01*
X108862857Y-102538161D01*
X108720000Y-102585780D01*
X108481904Y-102585780D01*
X109910476Y-101919114D02*
X109910476Y-102585780D01*
X109672380Y-101538161D02*
X109434285Y-102252447D01*
X110053333Y-102252447D01*
G04 #@! TO.C,D5*
X115492304Y-122423180D02*
X115492304Y-121423180D01*
X115730400Y-121423180D01*
X115873257Y-121470800D01*
X115968495Y-121566038D01*
X116016114Y-121661276D01*
X116063733Y-121851752D01*
X116063733Y-121994609D01*
X116016114Y-122185085D01*
X115968495Y-122280323D01*
X115873257Y-122375561D01*
X115730400Y-122423180D01*
X115492304Y-122423180D01*
X116968495Y-121423180D02*
X116492304Y-121423180D01*
X116444685Y-121899371D01*
X116492304Y-121851752D01*
X116587542Y-121804133D01*
X116825638Y-121804133D01*
X116920876Y-121851752D01*
X116968495Y-121899371D01*
X117016114Y-121994609D01*
X117016114Y-122232704D01*
X116968495Y-122327942D01*
X116920876Y-122375561D01*
X116825638Y-122423180D01*
X116587542Y-122423180D01*
X116492304Y-122375561D01*
X116444685Y-122327942D01*
G04 #@! TO.C,D6*
X126664980Y-121388095D02*
X125664980Y-121388095D01*
X125664980Y-121150000D01*
X125712600Y-121007142D01*
X125807838Y-120911904D01*
X125903076Y-120864285D01*
X126093552Y-120816666D01*
X126236409Y-120816666D01*
X126426885Y-120864285D01*
X126522123Y-120911904D01*
X126617361Y-121007142D01*
X126664980Y-121150000D01*
X126664980Y-121388095D01*
X125664980Y-119959523D02*
X125664980Y-120150000D01*
X125712600Y-120245238D01*
X125760219Y-120292857D01*
X125903076Y-120388095D01*
X126093552Y-120435714D01*
X126474504Y-120435714D01*
X126569742Y-120388095D01*
X126617361Y-120340476D01*
X126664980Y-120245238D01*
X126664980Y-120054761D01*
X126617361Y-119959523D01*
X126569742Y-119911904D01*
X126474504Y-119864285D01*
X126236409Y-119864285D01*
X126141171Y-119911904D01*
X126093552Y-119959523D01*
X126045933Y-120054761D01*
X126045933Y-120245238D01*
X126093552Y-120340476D01*
X126141171Y-120388095D01*
X126236409Y-120435714D01*
G04 #@! TO.C,D7*
X128166904Y-127452380D02*
X128166904Y-126452380D01*
X128405000Y-126452380D01*
X128547857Y-126500000D01*
X128643095Y-126595238D01*
X128690714Y-126690476D01*
X128738333Y-126880952D01*
X128738333Y-127023809D01*
X128690714Y-127214285D01*
X128643095Y-127309523D01*
X128547857Y-127404761D01*
X128405000Y-127452380D01*
X128166904Y-127452380D01*
X129071666Y-126452380D02*
X129738333Y-126452380D01*
X129309761Y-127452380D01*
G04 #@! TO.C,D8*
X128166904Y-138882380D02*
X128166904Y-137882380D01*
X128405000Y-137882380D01*
X128547857Y-137930000D01*
X128643095Y-138025238D01*
X128690714Y-138120476D01*
X128738333Y-138310952D01*
X128738333Y-138453809D01*
X128690714Y-138644285D01*
X128643095Y-138739523D01*
X128547857Y-138834761D01*
X128405000Y-138882380D01*
X128166904Y-138882380D01*
X129309761Y-138310952D02*
X129214523Y-138263333D01*
X129166904Y-138215714D01*
X129119285Y-138120476D01*
X129119285Y-138072857D01*
X129166904Y-137977619D01*
X129214523Y-137930000D01*
X129309761Y-137882380D01*
X129500238Y-137882380D01*
X129595476Y-137930000D01*
X129643095Y-137977619D01*
X129690714Y-138072857D01*
X129690714Y-138120476D01*
X129643095Y-138215714D01*
X129595476Y-138263333D01*
X129500238Y-138310952D01*
X129309761Y-138310952D01*
X129214523Y-138358571D01*
X129166904Y-138406190D01*
X129119285Y-138501428D01*
X129119285Y-138691904D01*
X129166904Y-138787142D01*
X129214523Y-138834761D01*
X129309761Y-138882380D01*
X129500238Y-138882380D01*
X129595476Y-138834761D01*
X129643095Y-138787142D01*
X129690714Y-138691904D01*
X129690714Y-138501428D01*
X129643095Y-138406190D01*
X129595476Y-138358571D01*
X129500238Y-138310952D01*
G04 #@! TO.C,R12*
X137205980Y-134602457D02*
X136729790Y-134935790D01*
X137205980Y-135173885D02*
X136205980Y-135173885D01*
X136205980Y-134792933D01*
X136253600Y-134697695D01*
X136301219Y-134650076D01*
X136396457Y-134602457D01*
X136539314Y-134602457D01*
X136634552Y-134650076D01*
X136682171Y-134697695D01*
X136729790Y-134792933D01*
X136729790Y-135173885D01*
X137205980Y-133650076D02*
X137205980Y-134221504D01*
X137205980Y-133935790D02*
X136205980Y-133935790D01*
X136348838Y-134031028D01*
X136444076Y-134126266D01*
X136491695Y-134221504D01*
X136301219Y-133269123D02*
X136253600Y-133221504D01*
X136205980Y-133126266D01*
X136205980Y-132888171D01*
X136253600Y-132792933D01*
X136301219Y-132745314D01*
X136396457Y-132697695D01*
X136491695Y-132697695D01*
X136634552Y-132745314D01*
X137205980Y-133316742D01*
X137205980Y-132697695D01*
G04 #@! TO.C,R13*
X134361180Y-146083257D02*
X133884990Y-146416590D01*
X134361180Y-146654685D02*
X133361180Y-146654685D01*
X133361180Y-146273733D01*
X133408800Y-146178495D01*
X133456419Y-146130876D01*
X133551657Y-146083257D01*
X133694514Y-146083257D01*
X133789752Y-146130876D01*
X133837371Y-146178495D01*
X133884990Y-146273733D01*
X133884990Y-146654685D01*
X134361180Y-145130876D02*
X134361180Y-145702304D01*
X134361180Y-145416590D02*
X133361180Y-145416590D01*
X133504038Y-145511828D01*
X133599276Y-145607066D01*
X133646895Y-145702304D01*
X133361180Y-144797542D02*
X133361180Y-144178495D01*
X133742133Y-144511828D01*
X133742133Y-144368971D01*
X133789752Y-144273733D01*
X133837371Y-144226114D01*
X133932609Y-144178495D01*
X134170704Y-144178495D01*
X134265942Y-144226114D01*
X134313561Y-144273733D01*
X134361180Y-144368971D01*
X134361180Y-144654685D01*
X134313561Y-144749923D01*
X134265942Y-144797542D01*
G04 #@! TO.C,SW1*
X100734761Y-119443333D02*
X100782380Y-119300476D01*
X100782380Y-119062380D01*
X100734761Y-118967142D01*
X100687142Y-118919523D01*
X100591904Y-118871904D01*
X100496666Y-118871904D01*
X100401428Y-118919523D01*
X100353809Y-118967142D01*
X100306190Y-119062380D01*
X100258571Y-119252857D01*
X100210952Y-119348095D01*
X100163333Y-119395714D01*
X100068095Y-119443333D01*
X99972857Y-119443333D01*
X99877619Y-119395714D01*
X99830000Y-119348095D01*
X99782380Y-119252857D01*
X99782380Y-119014761D01*
X99830000Y-118871904D01*
X99782380Y-118538571D02*
X100782380Y-118300476D01*
X100068095Y-118110000D01*
X100782380Y-117919523D01*
X99782380Y-117681428D01*
X100782380Y-116776666D02*
X100782380Y-117348095D01*
X100782380Y-117062380D02*
X99782380Y-117062380D01*
X99925238Y-117157619D01*
X100020476Y-117252857D01*
X100068095Y-117348095D01*
G04 #@! TO.C,J2*
X141906666Y-100417380D02*
X141906666Y-101131666D01*
X141859047Y-101274523D01*
X141763809Y-101369761D01*
X141620952Y-101417380D01*
X141525714Y-101417380D01*
X142335238Y-100512619D02*
X142382857Y-100465000D01*
X142478095Y-100417380D01*
X142716190Y-100417380D01*
X142811428Y-100465000D01*
X142859047Y-100512619D01*
X142906666Y-100607857D01*
X142906666Y-100703095D01*
X142859047Y-100845952D01*
X142287619Y-101417380D01*
X142906666Y-101417380D01*
G04 #@! TD*
M02*
