M48
;DRILL file {KiCad (5.0.0)} date 12/18/18 18:12:29
;FORMAT={3:3/ absolute / metric / suppress leading zeros}
FMAT,2
METRIC,TZ
T1C0.400
T2C0.762
T3C1.000
T4C1.520
%
G90
G05
M71
T1
X101600Y-101600
X101600Y-106680
X101600Y-111760
X101600Y-124460
X101600Y-129540
X101600Y-134620
X101600Y-139700
X101600Y-144780
X106680Y-124460
X106680Y-139700
X109220Y-100965
X111760Y-124460
X111760Y-134620
X111760Y-139700
X114300Y-102870
X114300Y-105410
X114300Y-121920
X116840Y-112395
X116840Y-113665
X116840Y-114935
X116840Y-116205
X116840Y-119380
X116840Y-124460
X116840Y-129540
X116840Y-134620
X116840Y-139700
X116840Y-144780
X118110Y-112395
X118110Y-116205
X119380Y-102235
X119380Y-112395
X119380Y-116205
X119380Y-121920
X119380Y-135890
X119380Y-139700
X120650Y-116840
X121285Y-113665
X121920Y-124460
X121920Y-135890
X121920Y-139700
X123190Y-134620
X123825Y-102870
X123825Y-107315
X123825Y-113665
X124460Y-111125
X125095Y-113665
X125095Y-131445
X125730Y-100965
X126791Y-124844
X127000Y-102870
X127000Y-105410
X127000Y-119380
X127000Y-122555
X128270Y-118745
X128270Y-133985
X128270Y-145415
X128905Y-129540
X128905Y-135890
X128905Y-139700
X129540Y-147320
X130175Y-116840
X130810Y-105410
X130810Y-133985
X130810Y-145415
X131445Y-116840
X131445Y-120650
X132080Y-142875
X132715Y-116840
X132715Y-131445
X133350Y-106045
X133350Y-113665
X133350Y-127000
X133350Y-137160
X133350Y-148590
X133985Y-115570
X135890Y-115570
X136525Y-137160
X137160Y-127000
X137160Y-142240
X137160Y-144780
X137795Y-115570
X139065Y-124460
X139065Y-134620
X139700Y-127000
X139700Y-129540
X140524Y-123001
X140970Y-109235
X142240Y-108585
X142240Y-118110
X142240Y-137160
X142240Y-142240
X143510Y-118110
X145415Y-113665
X145415Y-117475
X147320Y-113665
X147320Y-117475
X147320Y-137160
X147320Y-142240
X147320Y-147320
X147955Y-121920
X147955Y-127000
X147955Y-132080
X149225Y-113665
X149225Y-117475
T2
X101600Y-115570
X101600Y-120650
X106680Y-115570
X106680Y-118110
X106680Y-120650
X143510Y-128160
X143510Y-146160
T3
X144780Y-102870
X144780Y-105410
X144780Y-107950
X147320Y-102870
X147320Y-105410
X147320Y-107950
T4
X104140Y-103505
X104140Y-108585
X104140Y-128270
X104140Y-133350
X104140Y-142240
X104140Y-147320
T0
M30
